<svg width="30" height="31" viewBox="0 0 30 31" fill="none" xmlns="http://www.w3.org/2000/svg">
<path d="M30 15.5C30 23.7843 23.2843 30.5 15 30.5C6.71573 30.5 0 23.7843 0 15.5C0 7.21573 6.71573 0.5 15 0.5C23.2843 0.5 30 7.21573 30 15.5ZM2.17852 15.5C2.17852 22.5811 7.91889 28.3215 15 28.3215C22.0811 28.3215 27.8215 22.5811 27.8215 15.5C27.8215 8.41889 22.0811 2.67852 15 2.67852C7.91889 2.67852 2.17852 8.41889 2.17852 15.5Z" fill="#FA7D1E"/>
<path d="M23.0418 13.5714H22.4453C22.4366 13.2991 22.402 13.0182 22.3372 12.7458C22.1557 11.9289 21.7364 11.1595 21.0924 10.4636C20.2236 9.52568 19.0003 8.78221 17.548 8.31972C16.9731 8.13385 16.3809 8.01283 15.7801 7.94367V7.08785C15.7801 6.76367 15.5165 6.5 15.1923 6.5H14.2414C13.9172 6.5 13.6535 6.76367 13.6535 7.08785V7.93936C13.057 8.00852 12.4649 8.12955 11.8857 8.31541C9.32684 9.141 7.53307 10.7965 7.09638 12.7415C7.03155 13.0182 6.99697 13.2948 6.98832 13.5714H6.39182C5.62677 13.5714 5 14.1939 5 14.9633C5 15.7327 5.62242 16.3551 6.39182 16.3551H6.98832V20.9887C6.98832 22.3719 8.11647 23.5 9.49964 23.5H19.9338C21.317 23.5 22.4452 22.3719 22.4452 20.9887V16.3507H23.0417C23.8067 16.3507 24.4335 15.7283 24.4335 14.9589C24.4335 14.1939 23.8067 13.5714 23.0417 13.5714H23.0418ZM8.16839 22.3158C8.19865 22.3461 8.23323 22.3806 8.2678 22.4066C8.23323 22.3806 8.20297 22.3504 8.16839 22.3158ZM12.7285 17.0598C12.7285 17.0684 12.7285 17.0727 12.7328 17.0814C12.7328 17.0944 12.7371 17.1073 12.7371 17.1203L12.7501 17.1722C12.7544 17.1851 12.7587 17.1938 12.7587 17.2067C12.7674 17.2284 12.7717 17.25 12.7804 17.2673C12.8063 17.3321 12.8409 17.3926 12.8841 17.4618C12.9965 17.6563 13.1348 17.894 13.1348 18.3392C13.1348 18.5899 13.0916 18.7758 13.0311 18.9227C13.0181 18.9573 13.0051 18.9876 12.9922 19.0178C12.9792 19.0481 12.9619 19.074 12.9489 19.1043C12.9403 19.1172 12.936 19.1302 12.9273 19.1432C12.9144 19.1691 12.8971 19.1951 12.8841 19.2167C12.8149 19.3377 12.7587 19.4328 12.7328 19.5754C12.7328 19.5797 12.7328 19.5841 12.7285 19.5927V19.6014C12.7285 19.6143 12.7242 19.623 12.7242 19.6359C12.7242 19.6446 12.7242 19.6532 12.7198 19.6619C12.7155 19.6964 12.7155 19.7354 12.7155 19.7786C12.7155 19.8132 12.7112 19.8434 12.7026 19.8737C12.6723 19.9731 12.5945 20.0509 12.4951 20.0811C12.4648 20.0898 12.4346 20.0941 12.4 20.0941C12.2271 20.0941 12.0845 19.9515 12.0845 19.7786C12.0845 19.5711 12.1147 19.4068 12.1579 19.2728C12.1795 19.2037 12.2055 19.1432 12.2357 19.087C12.2444 19.0654 12.2574 19.0481 12.266 19.0308C12.2876 18.9832 12.3135 18.9443 12.3395 18.9054L12.3913 18.8147C12.4605 18.6893 12.5081 18.5683 12.5081 18.3435C12.5081 18.1231 12.4605 18.0021 12.3913 17.8724C12.387 17.8637 12.3784 17.8508 12.3741 17.8421C12.3654 17.8205 12.3524 17.8032 12.3395 17.7816C12.3308 17.7686 12.3265 17.7557 12.3179 17.747C12.2098 17.5612 12.0845 17.3234 12.0845 16.9085C12.0845 16.7831 12.0974 16.6751 12.1147 16.58C12.1147 16.5713 12.119 16.5584 12.119 16.5497C12.132 16.4979 12.145 16.4503 12.1579 16.4071C12.2055 16.2558 12.2746 16.1391 12.3352 16.0354C12.3395 16.0267 12.3481 16.0137 12.3524 16.0051C12.3654 15.9835 12.3741 15.9662 12.387 15.9489C12.4043 15.9187 12.4173 15.8927 12.4303 15.8625C12.4735 15.763 12.4994 15.6507 12.4994 15.4821C12.4994 15.4475 12.5037 15.4173 12.5124 15.387C12.5426 15.2876 12.6204 15.2098 12.7199 15.1795C12.7501 15.1709 12.7804 15.1666 12.8149 15.1666C12.9878 15.1666 13.1305 15.3092 13.1305 15.4821C13.1305 15.6896 13.1002 15.8538 13.0527 15.9878C13.0311 16.0527 13.0094 16.1088 12.9835 16.1607C12.9706 16.191 12.9533 16.2169 12.9403 16.2472C12.9316 16.2601 12.9273 16.2731 12.9187 16.2861C12.9057 16.312 12.8884 16.3379 12.8755 16.3595C12.8106 16.4762 12.7544 16.567 12.7285 16.7053C12.7285 16.714 12.7242 16.7269 12.7242 16.7399C12.7242 16.7529 12.7198 16.7658 12.7198 16.7788C12.7198 16.7875 12.7198 16.7961 12.7155 16.8048C12.7112 16.8393 12.7112 16.8782 12.7112 16.9215C12.7155 16.9604 12.7198 17.0122 12.7285 17.0598ZM14.8421 17.116C14.8421 17.1246 14.8421 17.1289 14.8464 17.1333C14.8508 17.1462 14.8508 17.1549 14.8551 17.1678C14.8854 17.2759 14.9329 17.358 14.9891 17.4531C14.9977 17.4661 15.0021 17.4791 15.0107 17.492C15.1188 17.6779 15.2441 17.9156 15.2441 18.3306C15.2441 18.5813 15.2009 18.7671 15.1404 18.9141C15.1274 18.9487 15.1144 18.979 15.1015 19.0092C15.0669 19.0827 15.028 19.1475 14.9934 19.208C14.9415 19.2945 14.8983 19.3723 14.8681 19.4631C14.8421 19.5452 14.8248 19.6403 14.8248 19.7656C14.8248 19.8002 14.8205 19.8305 14.8119 19.8607C14.7816 19.9601 14.7038 20.0379 14.6044 20.0682C14.5741 20.0768 14.5439 20.0812 14.5093 20.0812C14.3364 20.0812 14.1938 19.9385 14.1938 19.7656C14.1938 19.5581 14.224 19.3939 14.2672 19.2599C14.2889 19.1951 14.3105 19.1389 14.3364 19.087C14.3494 19.0567 14.3623 19.0308 14.3796 19.0006C14.3883 18.9876 14.3926 18.9746 14.4012 18.9616C14.4142 18.9357 14.4315 18.9098 14.4445 18.8882C14.4488 18.8795 14.4574 18.8666 14.4618 18.8579C14.479 18.8277 14.4963 18.7974 14.5093 18.7715C14.5136 18.7628 14.5179 18.7498 14.5223 18.7412C14.5309 18.7239 14.5396 18.7023 14.5482 18.6807C14.5525 18.6634 14.5612 18.6504 14.5655 18.6331C14.5914 18.551 14.6087 18.4559 14.6087 18.3306C14.6087 18.2874 14.6087 18.2485 14.6044 18.2139V18.1923C14.6044 18.1793 14.6001 18.1663 14.6001 18.1534C14.5957 18.1404 14.5957 18.1274 14.5914 18.1145C14.5828 18.0626 14.5698 18.0194 14.5525 17.9805C14.5439 17.9589 14.5352 17.9416 14.5266 17.92C14.5223 17.9113 14.5179 17.8983 14.5136 17.8897C14.492 17.8508 14.4704 17.8119 14.4488 17.7687C14.3364 17.5742 14.1981 17.3364 14.1981 16.8912C14.1981 16.7659 14.2111 16.6578 14.2283 16.5627C14.2283 16.5541 14.2327 16.5411 14.237 16.5325C14.25 16.4806 14.2629 16.4331 14.2759 16.3898C14.2975 16.325 14.3191 16.2688 14.345 16.2169C14.358 16.1867 14.371 16.1607 14.3883 16.1305C14.3969 16.1175 14.4012 16.1046 14.4099 16.0916C14.4229 16.0657 14.4401 16.0397 14.4531 16.0181C14.4574 16.0095 14.4661 15.9965 14.4704 15.9879C14.4877 15.9576 14.505 15.9317 14.5179 15.9014C14.5396 15.8582 14.5612 15.815 14.5741 15.7674C14.6001 15.6853 14.6174 15.5902 14.6174 15.4648C14.6174 15.4303 14.6217 15.4 14.6303 15.3698C14.6606 15.2703 14.7384 15.1925 14.8378 15.1623C14.8681 15.1536 14.8983 15.1493 14.9329 15.1493C15.1058 15.1493 15.2484 15.292 15.2484 15.4648C15.2484 15.6723 15.2182 15.8366 15.1706 15.9706C15.149 16.0397 15.1231 16.1002 15.0928 16.1564C15.0842 16.178 15.0712 16.1953 15.0626 16.2126C15.0366 16.2559 15.015 16.2991 14.9891 16.3423C14.9804 16.3553 14.9761 16.3682 14.9675 16.3812C14.9588 16.3985 14.9459 16.4158 14.9372 16.4331C14.907 16.4849 14.881 16.5411 14.8637 16.5973C14.8378 16.6794 14.8205 16.7745 14.8205 16.8999C14.8248 16.9863 14.8292 17.0555 14.8421 17.116ZM17.1805 19.0567C17.1589 19.0999 17.1373 19.1388 17.1157 19.1777C17.1071 19.1907 17.1027 19.2037 17.0941 19.2123C17.0422 19.2988 16.999 19.3766 16.9687 19.4673C16.9644 19.476 16.9601 19.489 16.9601 19.5019C16.9558 19.5149 16.9558 19.5235 16.9515 19.5365C16.9515 19.5408 16.9471 19.5495 16.9471 19.5538L16.9342 19.6316V19.6532C16.9298 19.6878 16.9298 19.7267 16.9298 19.7699C16.9298 19.9428 16.7872 20.0854 16.6143 20.0854C16.5797 20.0854 16.5495 20.0811 16.5192 20.0725C16.4198 20.0422 16.342 19.9644 16.3117 19.865C16.3031 19.8347 16.2988 19.8045 16.2988 19.7699C16.2988 19.4371 16.3766 19.2166 16.463 19.0481C16.4846 19.0048 16.5063 18.9659 16.5279 18.927C16.5365 18.9141 16.5408 18.9011 16.5495 18.8925C16.6013 18.806 16.6446 18.7282 16.6748 18.6374C16.6791 18.6288 16.6791 18.6158 16.6835 18.6029C16.6878 18.5899 16.6878 18.5812 16.6921 18.5683C16.6921 18.5639 16.6964 18.5553 16.6964 18.551L16.7094 18.4732V18.4516C16.7137 18.417 16.7137 18.3781 16.7137 18.3349C16.7137 18.2916 16.7137 18.2571 16.7094 18.2225C16.7094 18.2138 16.7094 18.2009 16.7051 18.1922C16.7008 18.1663 16.7008 18.1447 16.6964 18.1231C16.6964 18.1144 16.6921 18.1058 16.6921 18.0971C16.6921 18.0885 16.6878 18.0798 16.6878 18.0712C16.6878 18.0669 16.6878 18.0626 16.6835 18.0626C16.6791 18.0539 16.6791 18.0453 16.6748 18.0409C16.6705 18.0236 16.6619 18.0064 16.6575 17.9891C16.6489 17.9675 16.6402 17.9502 16.6316 17.9286C16.623 17.9069 16.61 17.8897 16.6013 17.868C16.5927 17.8508 16.5797 17.8291 16.5668 17.8119C16.5624 17.8032 16.5538 17.7902 16.5495 17.7816C16.489 17.6779 16.4198 17.5655 16.3723 17.4099C16.329 17.2759 16.2945 17.1116 16.2945 16.9041C16.2945 16.6275 16.3506 16.4287 16.4198 16.2731C16.4328 16.2428 16.4457 16.2126 16.463 16.1866C16.4717 16.1737 16.476 16.1564 16.4846 16.1434C16.4976 16.1175 16.5149 16.0915 16.5279 16.0656C16.5365 16.0526 16.5408 16.0397 16.5495 16.031C16.5624 16.0094 16.5711 15.9921 16.5841 15.9705C16.5884 15.9619 16.597 15.9489 16.6013 15.9402C16.6186 15.91 16.6359 15.8754 16.6489 15.8452C16.6921 15.7501 16.7181 15.6377 16.7181 15.4734C16.7181 15.3005 16.8607 15.1579 17.0336 15.1579C17.0682 15.1579 17.0984 15.1622 17.1287 15.1709C17.2281 15.2011 17.3059 15.2789 17.3362 15.3783C17.3448 15.4086 17.3491 15.4388 17.3491 15.4734C17.3491 15.9186 17.2108 16.1564 17.0984 16.3509C17.0033 16.5151 16.9342 16.6361 16.9342 16.9084C16.9342 16.9517 16.9342 16.9862 16.9385 17.0208C16.9385 17.0295 16.9385 17.0424 16.9428 17.0511C16.9471 17.0727 16.9471 17.09 16.9515 17.1073C16.9601 17.1635 16.9774 17.2153 16.9947 17.2586C17.0033 17.2802 17.012 17.2975 17.0206 17.3191C17.0422 17.3666 17.0725 17.4142 17.1027 17.466C17.1114 17.4833 17.12 17.5006 17.133 17.5179C17.146 17.5395 17.1589 17.5611 17.1676 17.5827C17.2065 17.6562 17.2497 17.7383 17.28 17.8378C17.3232 17.9717 17.3534 18.136 17.3534 18.3435C17.3491 18.6677 17.267 18.8881 17.1805 19.0567ZM7.96076 12.1626C8.21578 11.5877 8.61345 11.0518 9.12779 10.572C9.28772 10.425 9.4563 10.2824 9.63783 10.1484C9.70698 10.0965 9.77614 10.049 9.8453 9.99709C10.0312 9.86742 10.23 9.74207 10.4418 9.62537C10.4677 9.6124 10.4937 9.59511 10.5196 9.58214C10.5715 9.55189 10.6277 9.52595 10.6795 9.4957C10.7314 9.46544 10.7876 9.4395 10.8438 9.41357C10.9259 9.37467 11.0124 9.33145 11.0945 9.29254C11.3798 9.16287 11.678 9.04617 11.9892 8.94243C12.0195 8.93378 12.0497 8.92082 12.08 8.91217C12.348 8.82573 12.616 8.75224 12.8926 8.69605C13.0568 8.66147 13.2211 8.63122 13.3854 8.60528C13.5496 8.57934 13.7182 8.55773 13.8824 8.54045C14.4357 8.48858 14.9976 8.48858 15.5509 8.54045C15.6546 8.54909 15.7584 8.56206 15.8664 8.57502C15.9399 8.58367 16.0134 8.59664 16.0825 8.60528C16.169 8.61825 16.2554 8.63554 16.3419 8.65283C16.6272 8.70902 16.9125 8.77818 17.1934 8.8603C17.2453 8.87759 17.3015 8.89488 17.3533 8.91217C17.3966 8.92514 17.4355 8.9381 17.4787 8.9554C18.0622 9.1499 18.6025 9.39627 19.0952 9.68156C19.2681 9.7853 19.4367 9.88903 19.601 10.0014C19.6658 10.0446 19.7306 10.0922 19.7912 10.1397L19.9727 10.2824C20.0332 10.3299 20.0894 10.3775 20.1499 10.4293C20.3228 10.5763 20.4827 10.7319 20.6297 10.8918C21.0014 11.2938 21.2781 11.7217 21.4726 12.1669H7.96063L7.96076 12.1626Z" fill="#FA7D1E"/>
</svg>
