<svg width="24" height="24" viewBox="0 0 24 24" fill="none" xmlns="http://www.w3.org/2000/svg">
<path opacity="0.4" d="M16.19 8.8599C15.8 8.8599 15.49 8.5499 15.49 8.1599V6.8799C15.49 5.8999 15.07 4.9599 14.35 4.2999C13.61 3.6299 12.66 3.3199 11.66 3.4099C9.97999 3.5699 8.50999 5.2799 8.50999 7.0599V7.9599C8.50999 8.3499 8.19999 8.6599 7.80999 8.6599C7.41999 8.6599 7.10999 8.3499 7.10999 7.9599V7.0599C7.10999 4.5599 9.12999 2.2499 11.52 2.0199C12.91 1.8899 14.25 2.3299 15.28 3.2699C16.3 4.1899 16.88 5.5099 16.88 6.8799V8.1599C16.88 8.5499 16.57 8.8599 16.19 8.8599Z" fill="white"/>
<path d="M19.96 8.96008C19.12 8.03008 17.74 7.58008 15.72 7.58008H8.27999C6.25999 7.58008 4.87999 8.03008 4.03999 8.96008C3.06999 10.0401 3.09999 11.4801 3.20999 12.4801L3.90999 18.0501C4.11999 20.0001 4.90999 22.0001 9.20999 22.0001H14.79C19.09 22.0001 19.88 20.0001 20.09 18.0601L20.79 12.4701C20.9 11.4801 20.93 10.0401 19.96 8.96008ZM12 18.5801C9.90999 18.5801 8.20999 16.8801 8.20999 14.7901C8.20999 12.7001 9.90999 11.0001 12 11.0001C14.09 11.0001 15.79 12.7001 15.79 14.7901C15.79 16.8801 14.09 18.5801 12 18.5801Z" fill="white"/>
<path opacity="0.4" d="M12 18.58C14.0931 18.58 15.79 16.8832 15.79 14.79C15.79 12.6968 14.0931 11 12 11C9.9068 11 8.20996 12.6968 8.20996 14.79C8.20996 16.8832 9.9068 18.58 12 18.58Z" fill="white"/>
<path d="M11.43 16.64C11.24 16.64 11.05 16.57 10.9 16.42L9.91 15.43C9.62 15.14 9.62 14.66 9.91 14.37C10.2 14.08 10.68 14.08 10.97 14.37L11.45 14.85L13.05 13.37C13.35 13.09 13.83 13.11 14.11 13.41C14.39 13.71 14.37 14.19 14.07 14.47L11.94 16.44C11.79 16.57 11.61 16.64 11.43 16.64Z" fill="white"/>
</svg>
