<svg width="12" height="13" viewBox="0 0 12 13" fill="none" xmlns="http://www.w3.org/2000/svg">
<path d="M8.5 11.5H3.5C3.295 11.5 3.125 11.33 3.125 11.125C3.125 10.92 3.295 10.75 3.5 10.75H8.5C8.705 10.75 8.875 10.92 8.875 11.125C8.875 11.33 8.705 11.5 8.5 11.5Z" fill="white"/>
<path d="M10.1751 3.26002L8.17511 4.69002C7.91011 4.88002 7.53011 4.76502 7.41511 4.46002L6.47011 1.94002C6.31011 1.50502 5.69511 1.50502 5.53511 1.94002L4.58511 4.45502C4.47011 4.76502 4.09511 4.88002 3.83011 4.68502L1.83011 3.25502C1.43011 2.97502 0.90011 3.37002 1.06511 3.83502L3.14511 9.66002C3.21511 9.86002 3.40511 9.99002 3.61511 9.99002H8.38011C8.59011 9.99002 8.78011 9.85502 8.85011 9.66002L10.9301 3.83502C11.1001 3.37002 10.5701 2.97502 10.1751 3.26002ZM7.25011 7.87502H4.75011C4.54511 7.87502 4.37511 7.70502 4.37511 7.50002C4.37511 7.29502 4.54511 7.12502 4.75011 7.12502H7.25011C7.45511 7.12502 7.62511 7.29502 7.62511 7.50002C7.62511 7.70502 7.45511 7.87502 7.25011 7.87502Z" fill="white"/>
</svg>
