<svg width="25" height="26" viewBox="0 0 25 26" fill="none" xmlns="http://www.w3.org/2000/svg">
<g clip-path="url(#clip0_30_11270)">
<path d="M10.4767 25.1868C4.63495 24.1414 0.20752 19.099 0.20752 13.0113C0.20752 6.24718 5.74181 0.712891 12.5059 0.712891C19.2701 0.712891 24.8044 6.24718 24.8044 13.0113C24.8044 19.099 20.3769 24.1414 14.5352 25.1868L13.8588 24.6333H11.1531L10.4767 25.1868Z" fill="url(#paint0_linear_30_11270)"/>
<path d="M17.2995 16.4568L17.8529 13.0133H14.5938V10.6151C14.5938 9.6312 14.9628 8.8933 16.4386 8.8933H18.0374V5.7572C17.1765 5.63421 16.1926 5.51123 15.3317 5.51123C12.5031 5.51123 10.5353 7.23301 10.5353 10.3076V13.0133H7.46072V16.4568H10.5353V25.1272C11.2117 25.2502 11.8882 25.3117 12.5646 25.3117C13.241 25.3117 13.9174 25.2502 14.5938 25.1272V16.4568H17.2995Z" fill="white"/>
</g>
<defs>
<linearGradient id="paint0_linear_30_11270" x1="12.5066" y1="24.4543" x2="12.5066" y2="0.70836" gradientUnits="userSpaceOnUse">
<stop stop-color="#0062E0"/>
<stop offset="1" stop-color="#19AFFF"/>
</linearGradient>
<clipPath id="clip0_30_11270">
<rect width="24.5969" height="24.5969" fill="white" transform="translate(0.207695 0.713867)"/>
</clipPath>
</defs>
</svg>
