<svg width="26" height="26" viewBox="0 0 26 26" fill="none" xmlns="http://www.w3.org/2000/svg">
<g clip-path="url(#clip0_30_11274)">
<path d="M13.0085 0.901367C7.951 0.901367 6.47188 0.906585 6.18437 0.930435C5.14649 1.01671 4.50065 1.18012 3.79705 1.53043C3.25482 1.79968 2.82718 2.11179 2.40514 2.54931C1.63651 3.34719 1.17067 4.3288 1.00204 5.49562C0.920053 6.06208 0.896202 6.17761 0.891358 9.071C0.889494 10.0355 0.891358 11.3048 0.891358 13.0073C0.891358 18.0607 0.896948 19.5383 0.921171 19.8253C1.00502 20.8352 1.16341 21.4706 1.49881 22.1656C2.1398 23.4961 3.36401 24.4948 4.80624 24.8675C5.30561 24.9961 5.85716 25.0669 6.56523 25.1004C6.86523 25.1134 9.92298 25.1228 12.9826 25.1228C16.0422 25.1228 19.1018 25.119 19.3943 25.1041C20.2142 25.0656 20.6903 25.0016 21.2167 24.8656C22.6682 24.4911 23.8701 23.5072 24.5241 22.1582C24.853 21.4799 25.0198 20.8203 25.0952 19.8631C25.1116 19.6544 25.1185 16.327 25.1185 13.0041C25.1185 9.68069 25.1111 6.35947 25.0947 6.15077C25.0183 5.17811 24.8515 4.52408 24.512 3.83278C24.2334 3.26688 23.9241 2.84427 23.4751 2.41216C22.6736 1.6467 21.6935 1.18087 20.5256 1.01242C19.9597 0.930622 19.8469 0.906398 16.9513 0.901367H13.0085Z" fill="url(#paint0_radial_30_11274)"/>
<path d="M13.0085 0.901367C7.951 0.901367 6.47188 0.906585 6.18437 0.930435C5.14649 1.01671 4.50065 1.18012 3.79705 1.53043C3.25482 1.79968 2.82718 2.11179 2.40514 2.54931C1.63651 3.34719 1.17067 4.3288 1.00204 5.49562C0.920053 6.06208 0.896202 6.17761 0.891358 9.071C0.889494 10.0355 0.891358 11.3048 0.891358 13.0073C0.891358 18.0607 0.896948 19.5383 0.921171 19.8253C1.00502 20.8352 1.16341 21.4706 1.49881 22.1656C2.1398 23.4961 3.36401 24.4948 4.80624 24.8675C5.30561 24.9961 5.85716 25.0669 6.56523 25.1004C6.86523 25.1134 9.92298 25.1228 12.9826 25.1228C16.0422 25.1228 19.1018 25.119 19.3943 25.1041C20.2142 25.0656 20.6903 25.0016 21.2167 24.8656C22.6682 24.4911 23.8701 23.5072 24.5241 22.1582C24.853 21.4799 25.0198 20.8203 25.0952 19.8631C25.1116 19.6544 25.1185 16.327 25.1185 13.0041C25.1185 9.68069 25.1111 6.35947 25.0947 6.15077C25.0183 5.17811 24.8515 4.52408 24.512 3.83278C24.2334 3.26688 23.9241 2.84427 23.4751 2.41216C22.6736 1.6467 21.6935 1.18087 20.5256 1.01242C19.9597 0.930622 19.8469 0.906398 16.9513 0.901367H13.0085Z" fill="url(#paint1_radial_30_11274)"/>
<path d="M13.0026 4.06836C10.5736 4.06836 10.2688 4.07898 9.31472 4.1224C8.36255 4.166 7.71262 4.31674 7.14393 4.53792C6.55567 4.76637 6.05667 5.07196 5.55953 5.56928C5.06201 6.06642 4.75643 6.56542 4.52724 7.15349C4.3055 7.72237 4.15457 8.37249 4.11171 9.32429C4.06904 10.2783 4.05786 10.5833 4.05786 13.0124C4.05786 15.4415 4.06867 15.7454 4.1119 16.6994C4.15569 17.6516 4.30643 18.3015 4.52742 18.8702C4.75605 19.4584 5.06164 19.9574 5.55897 20.4546C6.05592 20.9521 6.55492 21.2584 7.14281 21.4869C7.71187 21.7081 8.36199 21.8588 9.31397 21.9024C10.268 21.9458 10.5727 21.9564 13.0015 21.9564C15.4308 21.9564 15.7347 21.9458 16.6887 21.9024C17.6409 21.8588 18.2916 21.7081 18.8606 21.4869C19.4487 21.2584 19.9469 20.9521 20.4439 20.4546C20.9414 19.9574 21.247 19.4584 21.4762 18.8704C21.6961 18.3015 21.847 17.6514 21.8917 16.6996C21.9346 15.7456 21.9458 15.4415 21.9458 13.0124C21.9458 10.5833 21.9346 10.2785 21.8917 9.32447C21.847 8.37231 21.6961 7.72237 21.4762 7.15368C21.247 6.56542 20.9414 6.06642 20.4439 5.56928C19.9464 5.07177 19.4489 4.76618 18.8601 4.53792C18.2899 4.31674 17.6396 4.166 16.6874 4.1224C15.7334 4.07898 15.4296 4.06836 12.9999 4.06836H13.0026ZM12.2003 5.68015C12.4384 5.67978 12.7041 5.68015 13.0026 5.68015C15.3907 5.68015 15.6737 5.68872 16.6168 5.73158C17.4888 5.77145 17.9621 5.91717 18.2774 6.03959C18.6948 6.2017 18.9924 6.39549 19.3052 6.70853C19.6183 7.02157 19.812 7.3197 19.9745 7.73709C20.0969 8.052 20.2428 8.52529 20.2825 9.39733C20.3254 10.3402 20.3347 10.6234 20.3347 13.0104C20.3347 15.3973 20.3254 15.6805 20.2825 16.6234C20.2427 17.4954 20.0969 17.9687 19.9745 18.2836C19.8124 18.701 19.6183 18.9982 19.3052 19.3111C18.9922 19.6241 18.695 19.8179 18.2774 19.98C17.9625 20.103 17.4888 20.2483 16.6168 20.2882C15.6739 20.331 15.3907 20.3404 13.0026 20.3404C10.6144 20.3404 10.3314 20.331 9.38851 20.2882C8.51646 20.2479 8.04317 20.1022 7.72771 19.9798C7.31032 19.8177 7.01219 19.6239 6.69915 19.3109C6.38611 18.9978 6.19232 18.7004 6.02983 18.2829C5.90741 17.968 5.76151 17.4947 5.72182 16.6226C5.67897 15.6798 5.6704 15.3965 5.6704 13.0081C5.6704 10.6197 5.67897 10.3379 5.72182 9.39509C5.7617 8.52305 5.90741 8.04976 6.02983 7.73448C6.19195 7.3171 6.38611 7.01896 6.69915 6.70592C7.01219 6.39288 7.31032 6.19909 7.72771 6.03661C8.04299 5.91363 8.51646 5.76829 9.38851 5.72822C10.2136 5.69096 10.5333 5.67978 12.2003 5.67791V5.68015ZM17.7769 7.16523C17.1844 7.16523 16.7036 7.64542 16.7036 8.23815C16.7036 8.83069 17.1844 9.31143 17.7769 9.31143C18.3694 9.31143 18.8502 8.83069 18.8502 8.23815C18.8502 7.6456 18.3694 7.16486 17.7769 7.16486V7.16523ZM13.0026 8.41926C10.4661 8.41926 8.40951 10.4758 8.40951 13.0124C8.40951 15.549 10.4661 17.6046 13.0026 17.6046C15.5392 17.6046 17.595 15.549 17.595 13.0124C17.595 10.4758 15.539 8.41926 13.0025 8.41926H13.0026ZM13.0026 10.0311C14.6491 10.0311 15.984 11.3658 15.984 13.0124C15.984 14.6588 14.6491 15.9937 13.0026 15.9937C11.356 15.9937 10.0213 14.6588 10.0213 13.0124C10.0213 11.3658 11.356 10.0311 13.0026 10.0311Z" fill="white"/>
</g>
<defs>
<radialGradient id="paint0_radial_30_11274" cx="0" cy="0" r="1" gradientUnits="userSpaceOnUse" gradientTransform="translate(7.32612 26.9883) rotate(-90) scale(24.0052 22.3328)">
<stop stop-color="#FFDD55"/>
<stop offset="0.1" stop-color="#FFDD55"/>
<stop offset="0.5" stop-color="#FF543E"/>
<stop offset="1" stop-color="#C837AB"/>
</radialGradient>
<radialGradient id="paint1_radial_30_11274" cx="0" cy="0" r="1" gradientUnits="userSpaceOnUse" gradientTransform="translate(-3.16779 2.64624) rotate(78.6776) scale(10.7305 44.2428)">
<stop stop-color="#3771C8"/>
<stop offset="0.128" stop-color="#3771C8"/>
<stop offset="1" stop-color="#6600FF" stop-opacity="0"/>
</radialGradient>
<clipPath id="clip0_30_11274">
<rect width="24.5969" height="24.5961" fill="white" transform="translate(0.701572 0.714355)"/>
</clipPath>
</defs>
</svg>
