<svg width="24" height="24" viewBox="0 0 24 24" fill="none" xmlns="http://www.w3.org/2000/svg">
<path fill-rule="evenodd" clip-rule="evenodd" d="M11.9877 23.7722C18.4828 23.7722 23.7481 18.5069 23.7481 12.0118C23.7481 5.51676 18.4828 0.251465 11.9877 0.251465C5.49265 0.251465 0.227348 5.51676 0.227348 12.0118C0.227348 18.5069 5.49265 23.7722 11.9877 23.7722Z" fill="#007EBB"/>
<path fill-rule="evenodd" clip-rule="evenodd" d="M19.4977 18.8738H16.5443V13.8435C16.5443 12.4644 16.0203 11.6937 14.9287 11.6937C13.7412 11.6937 13.1207 12.4957 13.1207 13.8435V18.8738H10.2745V9.29126H13.1207V10.582C13.1207 10.582 13.9765 8.9985 16.01 8.9985C18.0425 8.9985 19.4977 10.2397 19.4977 12.8067V18.8738ZM6.87899 8.03651C5.90951 8.03651 5.12391 7.24475 5.12391 6.26825C5.12391 5.29176 5.90951 4.5 6.87899 4.5C7.84847 4.5 8.6336 5.29176 8.6336 6.26825C8.6336 7.24475 7.84847 8.03651 6.87899 8.03651ZM5.40933 18.8738H8.37719V9.29126H5.40933V18.8738Z" fill="white"/>
</svg>
