<svg width="14" height="14" viewBox="0 0 14 14" fill="none" xmlns="http://www.w3.org/2000/svg">
<rect width="11.6364" height="11.6364" transform="translate(1.18188 1.18262)" fill="#FFE9E9"/>
<path d="M11.8182 1.18262H2.18188C1.6296 1.18262 1.18188 1.63033 1.18188 2.18262V11.819C1.18188 12.3713 1.6296 12.819 2.18189 12.819H11.8182C12.3705 12.819 12.8182 12.3713 12.8182 11.819V2.18262C12.8182 1.63033 12.3705 1.18262 11.8182 1.18262Z" stroke="#FF3030"/>
<path d="M7.00003 10.5508C8.96068 10.5508 10.5501 8.96141 10.5501 7.00076C10.5501 5.04011 8.96068 3.45068 7.00003 3.45068C5.03937 3.45068 3.44995 5.04011 3.44995 7.00076C3.44995 8.96141 5.03937 10.5508 7.00003 10.5508Z" fill="#FF3030"/>
</svg>
