<svg width="25" height="20" viewBox="0 0 25 20" fill="none" xmlns="http://www.w3.org/2000/svg">
<path d="M22.2013 4.98291C22.2162 5.19813 22.2162 5.41335 22.2162 5.63056C22.2162 12.2489 17.1778 19.8819 7.96488 19.8819V19.8779C5.24336 19.8819 2.57837 19.1023 0.287292 17.6324C0.683024 17.68 1.08074 17.7038 1.47945 17.7048C3.73482 17.7068 5.92572 16.9501 7.70007 15.5566C5.55677 15.5159 3.67729 14.1185 3.02072 12.0783C3.77152 12.2231 4.54513 12.1934 5.28204 11.992C2.94534 11.5199 1.26422 9.46688 1.26422 7.08257C1.26422 7.06075 1.26422 7.03992 1.26422 7.01909C1.96047 7.40689 2.74004 7.62211 3.53745 7.64592C1.33663 6.17506 0.658229 3.24724 1.98725 0.95815C4.53025 4.08731 8.28226 5.9896 12.31 6.19093C11.9063 4.4513 12.4578 2.62836 13.759 1.40546C15.7764 -0.490883 18.9492 -0.393686 20.8455 1.62266C21.9672 1.40149 23.0424 0.989888 24.0262 0.406704C23.6523 1.56613 22.8698 2.55099 21.8244 3.17683C22.8172 3.05979 23.7872 2.79399 24.7007 2.38834C24.0282 3.39602 23.1812 4.27377 22.2013 4.98291Z" fill="#1D9BF0"/>
</svg>
