<svg width="32" height="16" viewBox="0 0 32 16" fill="none" xmlns="http://www.w3.org/2000/svg">
<rect width="16" height="16" fill="#FFE9E9"/>
<rect width="11.6364" height="11.6364" transform="translate(2.18188 2.18262)" fill="#FFE9E9"/>
<path d="M12.8182 2.18262H3.18188C2.6296 2.18262 2.18188 2.63033 2.18188 3.18262V12.819C2.18188 13.3713 2.6296 13.819 3.18189 13.819H12.8182C13.3705 13.819 13.8182 13.3713 13.8182 12.819V3.18262C13.8182 2.63033 13.3705 2.18262 12.8182 2.18262Z" stroke="#FF3030"/>
<path d="M8.00003 11.5508C9.96068 11.5508 11.5501 9.96141 11.5501 8.00076C11.5501 6.04011 9.96068 4.45068 8.00003 4.45068C6.03937 4.45068 4.44995 6.04011 4.44995 8.00076C4.44995 9.96141 6.03937 11.5508 8.00003 11.5508Z" fill="#FF3030"/>
<rect x="16" width="16" height="16" fill="#F2FFF2"/>
<path d="M28.8182 2.18262H19.1819C18.6296 2.18262 18.1819 2.63033 18.1819 3.18262V12.819C18.1819 13.3713 18.6296 13.819 19.1819 13.819H28.8182C29.3705 13.819 29.8182 13.3713 29.8182 12.819V3.18262C29.8182 2.63033 29.3705 2.18262 28.8182 2.18262Z" stroke="#01A879"/>
<path d="M24 11.5508C25.9607 11.5508 27.5501 9.96141 27.5501 8.00076C27.5501 6.04011 25.9607 4.45068 24 4.45068C22.0394 4.45068 20.45 6.04011 20.45 8.00076C20.45 9.96141 22.0394 11.5508 24 11.5508Z" fill="#01A879"/>
</svg>
