<svg width="26" height="26" viewBox="0 0 26 26" fill="none" xmlns="http://www.w3.org/2000/svg">
<path d="M8.59121 22.068C8.56072 22.068 8.52007 22.0883 8.48958 22.0883C6.5179 21.1126 4.9121 19.4966 3.92626 17.525C3.92626 17.4945 3.94659 17.4538 3.94659 17.4233C5.18651 17.7892 6.46708 18.0636 7.73749 18.2771C7.96109 19.5576 8.22533 20.828 8.59121 22.068Z" fill="#1A264E"/>
<path d="M22.0982 17.5351C21.0921 19.5576 19.4151 21.1939 17.3723 22.1798C17.7585 20.889 18.0837 19.5881 18.2972 18.2771C19.5777 18.0636 20.838 17.7892 22.0779 17.4233C22.0677 17.464 22.0982 17.5046 22.0982 17.5351Z" fill="#1A264E"/>
<path d="M22.1795 8.65245C20.899 8.26624 19.6082 7.95118 18.2972 7.72759C18.0837 6.41653 17.7687 5.11563 17.3723 3.84521C19.4761 4.85138 21.1734 6.54865 22.1795 8.65245Z" fill="#1A264E"/>
<path d="M8.59122 3.95725C8.22534 5.19717 7.96109 6.45742 7.74766 7.73799C6.4366 7.94126 5.1357 8.26648 3.84496 8.65269C4.8308 6.60986 6.46709 4.93292 8.48958 3.92676C8.52007 3.92676 8.56073 3.95725 8.59122 3.95725Z" fill="#1A264E"/>
<path d="M16.5592 7.51358C14.2013 7.24934 11.8231 7.24934 9.46525 7.51358C9.71933 6.12121 10.0446 4.72884 10.5019 3.38729C10.5222 3.30598 10.5121 3.245 10.5222 3.16369C11.3251 2.97059 12.1484 2.84863 13.0122 2.84863C13.866 2.84863 14.6993 2.97059 15.4921 3.16369C15.5022 3.245 15.5022 3.30598 15.5226 3.38729C15.9799 4.739 16.3051 6.12121 16.5592 7.51358Z" fill="#1A264E"/>
<path d="M7.5139 16.5598C6.11137 16.3057 4.72916 15.9805 3.38761 15.5231C3.3063 15.5028 3.24532 15.513 3.16401 15.5028C2.97091 14.6999 2.84895 13.8767 2.84895 13.0128C2.84895 12.1591 2.97091 11.3257 3.16401 10.533C3.24532 10.5228 3.3063 10.5228 3.38761 10.5025C4.73932 10.0553 6.11137 9.7199 7.5139 9.46582C7.25982 11.8237 7.25982 14.2019 7.5139 16.5598Z" fill="#1A264E"/>
<path d="M23.1755 13.0128C23.1755 13.8767 23.0536 14.6999 22.8605 15.5028C22.7792 15.513 22.7182 15.5028 22.6369 15.5231C21.2852 15.9703 19.9029 16.3057 18.5106 16.5598C18.7748 14.2019 18.7748 11.8237 18.5106 9.46582C19.9029 9.7199 21.2953 10.0451 22.6369 10.5025C22.7182 10.5228 22.7792 10.533 22.8605 10.533C23.0536 11.3359 23.1755 12.1591 23.1755 13.0128Z" fill="#1A264E"/>
<path d="M16.5592 18.5107C16.3051 19.9133 15.9799 21.2955 15.5226 22.637C15.5022 22.7183 15.5022 22.7793 15.4921 22.8606C14.6993 23.0537 13.866 23.1757 13.0122 23.1757C12.1484 23.1757 11.3251 23.0537 10.5222 22.8606C10.5121 22.7793 10.5222 22.7183 10.5019 22.637C10.0547 21.2853 9.71933 19.9133 9.46525 18.5107C10.6442 18.6429 11.8231 18.7343 13.0122 18.7343C14.2013 18.7343 15.3904 18.6429 16.5592 18.5107Z" fill="#1A264E"/>
<path d="M16.837 16.8369C14.2951 17.1576 11.7294 17.1576 9.18746 16.8369C8.86675 14.2949 8.86675 11.7292 9.18746 9.18731C11.7294 8.8666 14.2951 8.8666 16.837 9.18731C17.1577 11.7292 17.1577 14.2949 16.837 16.8369Z" fill="#1A264E"/>
</svg>
