<svg width="28" height="28" viewBox="0 0 28 28" fill="none" xmlns="http://www.w3.org/2000/svg">
<path d="M11.9848 7.7399C7.20208 8.71865 3.56723 12.8868 3.37005 17.9351C2.54707 17.8902 2.08375 18.6196 2.06506 19.2252V20.1148C2.06506 20.8223 2.64467 21.4052 3.34806 21.4052H24.9368C25.6402 21.4052 26.2197 20.8223 26.2197 20.1148V19.2252C26.1653 18.4334 25.7632 17.9534 24.9148 17.9349C24.7176 12.8856 21.0813 8.71673 16.2975 7.73872C16.0584 6.68292 15.2109 5.91579 14.1915 5.87744C13.1238 5.91788 12.165 6.65517 11.9852 7.73946L11.9848 7.7399ZM14.1709 6.73936C14.8035 6.82736 15.1971 7.09829 15.3756 7.59507C14.9707 7.54867 14.5595 7.52228 14.1423 7.52228C13.7248 7.52228 13.3133 7.54847 12.9082 7.59507C13.134 7.02685 13.6884 6.75765 14.1709 6.73936ZM24.0521 17.9352H4.2331C4.45724 12.6207 8.80229 8.38975 14.1428 8.38975C19.4834 8.38975 23.8283 12.6206 24.0526 17.9352H24.0521ZM18.9521 13.0385C18.8833 13.2678 19.0123 13.5096 19.2401 13.579C20.1579 13.858 20.6512 14.516 20.9385 15.1532C21.0821 15.4716 21.168 15.7803 21.2144 16.1839C21.2608 16.5875 21.4299 16.7826 21.6554 16.8061C21.8924 16.8313 22.105 16.6582 22.0538 16.1055C22.0026 15.5529 21.9011 15.1861 21.7245 14.7948C21.3714 14.012 20.692 13.1141 19.4905 12.7489C19.2284 12.684 18.9767 12.8084 18.9523 13.0387L18.9521 13.0385ZM3.34826 18.8025H24.937C25.1775 18.8025 25.3573 18.9835 25.3573 19.2252V20.1148C25.3573 20.3566 25.1775 20.5375 24.937 20.5375H3.34826C3.10775 20.5375 2.92791 20.3566 2.92791 20.1148V19.2252C2.92791 18.9833 3.10775 18.8025 3.34826 18.8025Z" fill="#832A0E"/>
</svg>
