<svg width="28" height="28" viewBox="0 0 28 28" fill="none" xmlns="http://www.w3.org/2000/svg">
<path d="M9.01978 23.9591H6.99939C6.32946 23.9591 5.68711 23.6928 5.2134 23.2193C4.73982 22.7456 4.47363 22.1032 4.47363 21.4333V19.4129C4.47363 19.1338 4.69993 18.9077 4.97882 18.9077C5.25771 18.9077 5.484 19.1338 5.484 19.4129V21.4335V21.4333C5.484 21.8353 5.64366 22.2208 5.92779 22.5049C6.21193 22.789 6.59738 22.9487 6.99939 22.9487H9.01996H9.01979C9.29885 22.9487 9.52497 23.175 9.52497 23.4539C9.52497 23.7328 9.29884 23.9591 9.01978 23.9591Z" fill="#832A0E"/>
<path d="M21.1428 23.9591H19.1224C18.8433 23.9591 18.6172 23.7328 18.6172 23.4539C18.6172 23.175 18.8433 22.9487 19.1224 22.9487H21.1429H21.1428C21.5448 22.9487 21.9303 22.789 22.2144 22.5049C22.4985 22.2208 22.6582 21.8353 22.6582 21.4333V19.4129C22.6582 19.1338 22.8845 18.9077 23.1633 18.9077C23.4422 18.9077 23.6685 19.1338 23.6685 19.4129V21.4335V21.4333C23.6685 22.1032 23.4023 22.7456 22.9288 23.2193C22.4551 23.6929 21.8127 23.9591 21.1428 23.9591Z" fill="#832A0E"/>
<path d="M23.1636 9.81501C22.8847 9.81501 22.6584 9.58888 22.6584 9.30982V7.28943C22.6584 6.88741 22.4987 6.50195 22.2146 6.21783C21.9305 5.93372 21.545 5.77404 21.143 5.77404H19.1226C18.8436 5.77404 18.6174 5.54775 18.6174 5.26886C18.6174 4.98997 18.8436 4.76367 19.1226 4.76367H21.1432H21.143C21.8129 4.76367 22.4553 5.02988 22.929 5.50344C23.4026 5.97715 23.6688 6.6195 23.6688 7.28943V9.31V9.30983C23.6688 9.44378 23.6155 9.57231 23.5208 9.66702C23.4261 9.76173 23.2975 9.81501 23.1636 9.81501Z" fill="#832A0E"/>
<path d="M4.97918 9.81501C4.70029 9.81501 4.474 9.58888 4.474 9.30982V7.28943C4.474 6.6195 4.7402 5.97715 5.21377 5.50344C5.68747 5.02986 6.32982 4.76367 6.99975 4.76367H9.02032H9.02015C9.29921 4.76367 9.52534 4.98997 9.52534 5.26886C9.52534 5.54775 9.29921 5.77404 9.02015 5.77404H6.99976C6.59774 5.77404 6.21228 5.9337 5.92816 6.21783C5.64405 6.50197 5.48437 6.88742 5.48437 7.28943V9.31V9.30983C5.48437 9.44378 5.4311 9.57231 5.33639 9.66702C5.24167 9.76173 5.11314 9.81501 4.97918 9.81501Z" fill="#832A0E"/>
<path d="M12.0505 12.8453H8.00958C7.73069 12.8453 7.50439 12.6192 7.50439 12.3401V8.29913C7.50439 8.02024 7.73069 7.79395 8.00958 7.79395H12.0505C12.1845 7.79395 12.313 7.84722 12.4077 7.94193C12.5025 8.03664 12.5557 8.16518 12.5557 8.29913V12.3401C12.5557 12.474 12.5025 12.6026 12.4077 12.6973C12.313 12.792 12.1845 12.8453 12.0505 12.8453ZM8.51459 11.8351H11.5454L11.5455 8.80432H8.51476L8.51459 11.8351Z" fill="#832A0E"/>
<path d="M20.1327 12.8453H16.0917C15.8127 12.8453 15.5865 12.6192 15.5865 12.3401V8.29913C15.5865 8.02024 15.8127 7.79395 16.0917 7.79395H20.1327C20.2666 7.79395 20.3952 7.84722 20.4899 7.94193C20.5846 8.03664 20.6379 8.16518 20.6379 8.29913V12.3401C20.6379 12.474 20.5846 12.6026 20.4899 12.6973C20.3952 12.792 20.2666 12.8453 20.1327 12.8453ZM16.5967 11.8351H19.6275V8.80432H16.5967V11.8351Z" fill="#832A0E"/>
<path d="M12.0505 20.9283H8.00958C7.73069 20.9283 7.50439 20.702 7.50439 20.4231V16.3821C7.50439 16.1031 7.73069 15.877 8.00958 15.877H12.0505C12.1845 15.877 12.313 15.9302 12.4077 16.0249C12.5025 16.1197 12.5557 16.2482 12.5557 16.3821V20.4231C12.5557 20.5571 12.5025 20.6856 12.4077 20.7803C12.313 20.875 12.1845 20.9283 12.0505 20.9283ZM8.51459 19.9181H11.5454L11.5455 16.8872H8.51476L8.51459 19.9181Z" fill="#832A0E"/>
<path d="M19.1326 18.9072H20.1428C20.4217 18.9072 20.648 19.1861 20.648 19.4124V20.4226C20.648 20.7015 20.4219 20.9278 20.1428 20.9278H19.1326C18.8537 20.9278 18.6274 20.6489 18.6274 20.4226V19.4124C18.6274 19.1335 18.8536 18.9072 19.1326 18.9072Z" fill="#832A0E"/>
<path d="M19.1326 15.877H20.1428C20.4217 15.877 20.648 16.1558 20.648 16.3821V17.3923C20.648 17.6712 20.4219 17.8975 20.1428 17.8975H19.1326C18.8537 17.8975 18.6274 17.6186 18.6274 17.3923V16.3821C18.6274 16.1032 18.8536 15.877 19.1326 15.877Z" fill="#832A0E"/>
<path d="M16.1019 15.877H17.1121C17.391 15.877 17.6172 16.1558 17.6172 16.3821V17.3923C17.6172 17.6712 17.3911 17.8975 17.1121 17.8975H16.1019C15.823 17.8975 15.5967 17.6186 15.5967 17.3923V16.3821C15.5967 16.1032 15.8228 15.877 16.1019 15.877Z" fill="#832A0E"/>
<path d="M16.1019 18.9072H17.1121C17.391 18.9072 17.6172 19.1861 17.6172 19.4124V20.4226C17.6172 20.7015 17.3911 20.9278 17.1121 20.9278H16.1019C15.823 20.9278 15.5967 20.6489 15.5967 20.4226V19.4124C15.5967 19.1335 15.8228 18.9072 16.1019 18.9072Z" fill="#832A0E"/>
</svg>
