<svg width="23" height="19" viewBox="0 0 23 19" fill="none" xmlns="http://www.w3.org/2000/svg">
<path d="M22.1562 2.58969C22.1562 2.49302 22.1177 2.40025 22.0494 2.33189C21.981 2.26354 21.8883 2.22513 21.7916 2.22513H19.6043C19.4029 2.22513 19.2397 2.38837 19.2397 2.58969V10.9745H17.7815V6.23526C17.7815 6.13859 17.7431 6.04582 17.6747 5.97747C17.6063 5.90912 17.5136 5.87071 17.4169 5.87071H15.5941V5.14159C15.5941 4.94825 15.5173 4.76271 15.3806 4.626C15.2439 4.4893 15.0584 4.41248 14.865 4.41248H14.1359V3.78248C14.1359 2.88963 13.4432 2.1361 12.4316 1.8697C12.4337 1.84496 12.4345 1.81973 12.4345 1.79418C12.4072 1.49782 12.2646 1.22406 12.0373 1.03186C11.8099 0.839654 11.5163 0.744448 11.2194 0.766905C10.9226 0.744446 10.6288 0.839654 10.4015 1.03186C10.1741 1.22407 10.0314 1.49783 10.004 1.79418C10.004 1.81973 10.0052 1.8448 10.0073 1.8697C8.99564 2.13612 8.30298 2.88979 8.30298 3.78248V4.41248H7.57386C7.38052 4.41248 7.19498 4.4893 7.05828 4.626C6.92157 4.76271 6.84475 4.94825 6.84475 5.14159V5.87071H5.02196C4.82064 5.87071 4.6574 6.03394 4.6574 6.23526V10.9745H3.19917V2.58969C3.19917 2.49302 3.16077 2.40025 3.09241 2.33189C3.02406 2.26354 2.93129 2.22513 2.83462 2.22513H0.647272C0.445953 2.22513 0.282715 2.38837 0.282715 2.58969C0.306151 3.52466 0.398919 4.4566 0.560204 5.37791C0.715468 6.26343 0.805465 7.1592 0.829551 8.05805C0.829551 9.80793 0.691052 11.5907 0.55727 13.316C0.422351 15.0553 0.282715 16.854 0.282715 18.6302C0.282715 18.7269 0.321124 18.8197 0.389478 18.888C0.457832 18.9564 0.5506 18.9948 0.647272 18.9948H2.83462C2.93129 18.9948 3.02406 18.9564 3.09241 18.888C3.16076 18.8197 3.19917 18.7269 3.19917 18.6302V13.1619H4.6574V16.3467C4.6574 17.8318 5.61842 18.9948 6.84475 18.9948C8.09158 18.9948 9.03209 17.8975 9.03209 16.4429C9.03209 17.8975 9.97261 18.9948 11.2194 18.9948C12.4663 18.9948 13.4068 17.8975 13.4068 16.4429C13.4068 17.8975 14.3473 18.9948 15.5941 18.9948C16.8205 18.9948 17.7815 17.8318 17.7815 16.3467V13.1619H19.2397V18.6302C19.2397 18.7269 19.2781 18.8197 19.3465 18.888C19.4148 18.9564 19.5076 18.9948 19.6043 18.9948H21.7916C21.8883 18.9948 21.981 18.9564 22.0494 18.888C22.1178 18.8197 22.1562 18.7269 22.1562 18.6302C22.1562 16.8541 22.0165 15.0554 21.8816 13.316C21.7478 11.5906 21.6093 9.8078 21.6093 8.05805C21.6333 7.1592 21.7233 6.26343 21.8787 5.37791C22.04 4.4566 22.1327 3.52471 22.1562 2.58969ZM9.03209 3.78248C9.03209 3.15069 9.68096 2.60385 10.5421 2.5109C10.675 2.49642 10.7893 2.41032 10.8401 2.28663C10.8907 2.16294 10.8695 2.02135 10.7849 1.91784C10.7538 1.88383 10.7356 1.84021 10.7331 1.79415C10.7331 1.65354 10.9413 1.496 11.2194 1.496C11.4976 1.496 11.7054 1.65354 11.7054 1.79415C11.7031 1.84005 11.6849 1.88383 11.654 1.91784C11.5693 2.02135 11.5482 2.16294 11.5988 2.28663C11.6496 2.41033 11.7638 2.49642 11.8968 2.5109C12.7579 2.60383 13.4068 3.15065 13.4068 3.78248V4.41248H9.03207L9.03209 3.78248ZM7.57386 5.14159H14.865V5.87071H7.57386V5.14159ZM5.38651 6.59982H17.0524V9.51628H5.38651V6.59982ZM2.83461 12.4327C2.63329 12.4327 2.47005 12.596 2.47005 12.7973V18.2657H1.01362C1.03119 16.6346 1.15944 14.9781 1.2841 13.3723C1.41902 11.633 1.55866 9.83605 1.55866 8.05805C1.53522 7.12308 1.44246 6.19114 1.28117 5.26983C1.15178 4.5033 1.06423 3.7304 1.01914 2.95425H2.47004V11.3391C2.47004 11.4357 2.50845 11.5285 2.5768 11.5969C2.64516 11.6652 2.73793 11.7036 2.8346 11.7036H4.65739V12.4327H2.83461ZM17.0524 16.3467C17.0524 17.4228 16.4118 18.2657 15.5941 18.2657C14.7491 18.2657 14.1359 17.5001 14.1359 16.4429C14.1359 16.4035 14.1359 16.3597 14.133 16.3141C14.1286 16.2499 14.1286 16.1852 14.133 16.121C14.1452 16.0176 14.1126 15.9141 14.0435 15.8363C13.9744 15.7585 13.8753 15.7139 13.7713 15.7138H13.0422C12.9381 15.7138 12.839 15.7584 12.7698 15.8362C12.7006 15.9139 12.6681 16.0176 12.6803 16.121C12.6847 16.1852 12.6847 16.2499 12.6803 16.3141C12.6803 16.3597 12.6773 16.4035 12.6773 16.4429C12.6773 17.5001 12.0641 18.2657 11.2191 18.2657C10.3741 18.2657 9.76088 17.5001 9.76088 16.4429C9.76088 16.4035 9.76088 16.3597 9.75795 16.3141C9.75356 16.2499 9.75356 16.1852 9.75795 16.121C9.77016 16.0178 9.73761 15.9141 9.6686 15.8363C9.5996 15.7585 9.50065 15.7139 9.39665 15.7138H8.66754C8.56338 15.7138 8.46426 15.7584 8.39509 15.8362C8.32592 15.9139 8.29338 16.0176 8.30558 16.121C8.30998 16.1852 8.30998 16.2499 8.30558 16.3141C8.30558 16.3597 8.30265 16.4035 8.30265 16.4429C8.30265 17.5001 7.68941 18.2657 6.84442 18.2657C6.02677 18.2657 5.3862 17.4228 5.3862 16.3467V10.2454H17.0525L17.0524 16.3467ZM19.9688 18.2657V12.7973C19.9688 12.7006 19.9304 12.6079 19.862 12.5395C19.7937 12.4712 19.7009 12.4327 19.6043 12.4327H17.7815V11.7036H19.6043C19.7009 11.7036 19.7937 11.6652 19.862 11.5969C19.9304 11.5285 19.9688 11.4357 19.9688 11.3391V2.95425H21.4197C21.3745 3.7304 21.2869 4.5033 21.1577 5.26983C20.9964 6.19114 20.9036 7.12303 20.8802 8.05805C20.8802 9.83413 21.0198 11.6328 21.1547 13.3723C21.2812 14.9783 21.4077 16.6347 21.427 18.2657H19.9688Z" fill="#832A0E"/>
</svg>
