<svg width="16" height="16" viewBox="0 0 16 16" fill="none" xmlns="http://www.w3.org/2000/svg">
<path d="M14.6466 12.0002V12.6668C14.6466 13.7668 14.6466 14.6668 12.6466 14.6668H3.31323C1.31323 14.6668 1.31323 13.7668 1.31323 12.6668V12.0002C1.31323 11.6335 1.61323 11.3335 1.9799 11.3335H13.9799C14.3466 11.3335 14.6466 11.6335 14.6466 12.0002Z" fill="#F9CA26"/>
<path d="M9.6066 3.45318C9.63993 3.31985 9.65993 3.19318 9.6666 3.05318C9.6866 2.27985 9.21326 1.59985 8.4666 1.39985C7.3466 1.09318 6.33326 1.93318 6.33326 2.99985C6.33326 3.15985 6.35326 3.30651 6.39326 3.45318C3.9866 3.96651 2.17993 6.10651 2.17993 8.66651V9.66652C2.17993 10.0332 2.47993 10.3332 2.8466 10.3332H13.1466C13.5133 10.3332 13.8133 10.0332 13.8133 9.66652V8.66651C13.8133 6.10651 12.0133 3.97318 9.6066 3.45318ZM9.99993 7.83318H5.99993C5.7266 7.83318 5.49993 7.60651 5.49993 7.33318C5.49993 7.05985 5.7266 6.83318 5.99993 6.83318H9.99993C10.2733 6.83318 10.4999 7.05985 10.4999 7.33318C10.4999 7.60651 10.2733 7.83318 9.99993 7.83318Z" fill="#F9CA26"/>
</svg>
