<svg width="16" height="16" viewBox="0 0 16 16" fill="none" xmlns="http://www.w3.org/2000/svg">
<path fill-rule="evenodd" clip-rule="evenodd" d="M7.98733 3.47168C10.4404 3.47168 12.4297 5.46115 12.4297 7.91408C12.4297 10.3674 10.4403 12.3568 7.98733 12.3568C5.53439 12.3568 3.54492 10.3673 3.54492 7.91408C3.54492 5.46103 5.53439 3.47168 7.98733 3.47168ZM7.94933 4.90856C8.79886 4.90856 9.56819 5.25313 10.1249 5.81004C10.6818 6.36671 11.0261 7.13592 11.0261 7.98545C11.0261 8.83499 10.6815 9.6042 10.1249 10.161C9.56819 10.7177 8.79874 11.0622 7.94933 11.0622C7.10003 11.0622 6.33058 10.7177 5.77391 10.161C5.217 9.60408 4.87267 8.83487 4.87267 7.98545C4.87267 7.13592 5.217 6.36671 5.77391 5.80992C6.33058 5.25325 7.10003 4.90868 7.94933 4.90868V4.90856Z" fill="#44C4FD"/>
<path fill-rule="evenodd" clip-rule="evenodd" d="M1.88405 6.98465L1.72391 13.4448C1.94623 13.9676 2.43805 13.9711 2.65014 13.4448L2.49 6.98525C4.36407 6.65799 3.89514 2.07605 2.18713 2.08497C0.610692 2.09973 0.0896931 6.71838 1.88403 6.98495L1.88405 6.98465Z" fill="#44C4FD"/>
<path fill-rule="evenodd" clip-rule="evenodd" d="M12.5411 5.29354C12.5346 6.9274 13.2431 6.90125 13.681 6.9252L13.5218 13.4017C13.7549 14.0343 14.2149 14.0139 14.448 13.4017L14.2886 6.91151C14.6666 6.90617 15.4183 6.90349 15.4287 5.29357L15.2483 2.10547H14.9657V4.85406L14.2117 4.85581L14.1743 2.10549H13.7859L13.7515 4.85581L13.0044 4.85406V2.10547H12.7046L12.5413 5.29357L12.5411 5.29354Z" fill="#44C4FD"/>
<path fill-rule="evenodd" clip-rule="evenodd" d="M7.93262 5.26025C9.42796 5.26025 10.6406 6.47296 10.6406 7.96827C10.6406 9.46361 9.42793 10.6763 7.93262 10.6763C6.43728 10.6763 5.22461 9.46358 5.22461 7.96827C5.22461 6.47293 6.43731 5.26025 7.93262 5.26025Z" fill="#44C4FD"/>
</svg>
