<svg width="18" height="18" viewBox="0 0 18 18" fill="none" xmlns="http://www.w3.org/2000/svg">
<path d="M17.1264 6.93444C17.0532 6.62724 16.8337 6.47365 16.541 6.39685L11.8577 5.70566L9.73552 1.25134C9.51599 0.713747 8.63786 0.713747 8.41833 1.25134L6.29619 5.62886L1.68604 6.39685C1.39333 6.39685 1.1738 6.62724 1.02744 6.93444C0.954264 7.24163 1.02744 7.54883 1.24697 7.70243L4.61312 11.1584L3.80817 16.0735C3.73499 16.3807 3.88135 16.6879 4.10088 16.8415C4.32041 16.9951 4.61312 17.0719 4.90583 16.9183L9.07692 14.6143L13.248 16.9183C13.3944 16.9183 13.4676 16.9183 13.6139 16.9183C13.7603 16.9183 13.9066 16.8415 14.053 16.7647C14.2725 16.6111 14.4189 16.3039 14.3457 15.9967L13.5407 11.0816L16.9069 7.62563C17.1264 7.47203 17.1996 7.16484 17.1264 6.93444Z" stroke="#FFB65A" stroke-width="1.00962"/>
</svg>
