<svg width="14" height="14" viewBox="0 0 14 14" fill="none" xmlns="http://www.w3.org/2000/svg">
<path fill-rule="evenodd" clip-rule="evenodd" d="M6.76773 0.533968C6.63883 0.539451 6.52702 0.624492 6.48733 0.747267L5.03552 5.24692L0.308809 5.23757C0.175067 5.23735 0.056376 5.32347 0.0150895 5.45065C-0.0261942 5.57783 0.019175 5.71717 0.127436 5.79565L3.95747 8.56716L2.48683 13.0621L2.48694 13.062C2.44533 13.1892 2.49048 13.3285 2.59875 13.4072C2.7069 13.4858 2.85344 13.4857 2.96149 13.4069L6.78079 10.6197L10.6015 13.4069V13.4068C10.7095 13.4856 10.856 13.4857 10.9643 13.4071C11.0725 13.3284 11.1176 13.189 11.076 13.0619L9.60538 8.56695L13.4354 5.79543L13.4355 5.79554C13.5439 5.71705 13.5893 5.57772 13.548 5.45043C13.5066 5.32325 13.388 5.23713 13.2541 5.23746L8.52743 5.24681L7.074 0.747157C7.03142 0.615349 6.90617 0.52816 6.76781 0.533965L6.76773 0.533968Z" fill="#F9CA26"/>
</svg>
